<?xml version="1.0" encoding="UTF-8" standalone="no"?>
<!-- Created with Inkscape (http://www.inkscape.org/) -->

<svg
   xmlns:dc="http://purl.org/dc/elements/1.1/"
   xmlns:cc="http://creativecommons.org/ns#"
   xmlns:rdf="http://www.w3.org/1999/02/22-rdf-syntax-ns#"
   xmlns:svg="http://www.w3.org/2000/svg"
   xmlns="http://www.w3.org/2000/svg"
   version="1.1"
   width="744.09448"
   height="1052.3622"
   id="svg2">
  <defs
     id="defs4" />
  <metadata
     id="metadata7">
    <rdf:RDF>
      <cc:Work
         rdf:about="">
        <dc:format>image/svg+xml</dc:format>
        <dc:type
           rdf:resource="http://purl.org/dc/dcmitype/StillImage" />
        <dc:title></dc:title>
      </cc:Work>
    </rdf:RDF>
  </metadata>
  <g
     id="layer1">
    <g
       transform="translate(260.5,350.00504)"
       id="g2989"
       style="fill:none;stroke:#000000;stroke-opacity:1">
      <path
         d="m 12,155 1,-31 6,-26 30,2 9,3 24,8 27,3 6,6 11,-3 8,-22 10,-22 9,-7 9,7 8,24 9,21 27,-1 24,2 26,2 30,0 14,0 8,24 0,32 0,32 0,32 0,32 0,32 0,-32 0,-32 0,-32 0,-32 0,-32 -17,-5 -23,1 -27,1 -29,-1 -25,1 8,8 -12,16 -4,-10 -2,-18 -4,-28 -9,-21 -1,-15 -10,-6 -10,6 -9,23 -6,26 6,16 -24,-4 -28,-2 -25,-1 -20,10 -22,4 -3,29 1,29 -1,31 1,31 -1,31 0,8 29,3 32,0 32,0 32,0 32,0 32,0 32,0 32,0 32,0 -16,0 -32,0 -32,0 -32,0 -32,0 -32,0 -32,0 -32,0 -32,0 -13,-3 0,-32 0,-32 0,-32 0,-32 0,-22 z"
         id="path2991"
         style="fill:none;stroke:#000000;stroke-opacity:1" />
    </g>
    <g
       transform="translate(260.5,350.00504)"
       id="g2993"
       style="fill:none;stroke:#000000;stroke-opacity:1">
      <path
         d="m 183,74 31,-1 30,2 21,-7 30,0 12,4 1,15 -25,-3 -30,-2 -30,-2 -29,-1 -11,-5 z"
         id="path2995"
         style="fill:none;stroke:#000000;stroke-opacity:1" />
    </g>
    <g
       transform="translate(260.5,350.00504)"
       id="g2997"
       style="fill:none;stroke:#000000;stroke-opacity:1">
      <path
         d="m 218,75 -25,3 30,2 27,1 30,2 27,3 0,-14 -28,-2 -20,4 -26,2 -15,-1 z"
         id="path2999"
         style="fill:none;stroke:#000000;stroke-opacity:1" />
    </g>
    <g
       transform="translate(260.5,350.00504)"
       id="g3001"
       style="fill:none;stroke:#000000;stroke-opacity:1">
      <path
         d="m 98,154 20,-6 -9,7 -11,-1 z"
         id="path3003"
         style="fill:none;stroke:#000000;stroke-opacity:1" />
    </g>
    <g
       transform="translate(260.5,350.00504)"
       id="g3005"
       style="fill:none;stroke:#000000;stroke-opacity:1">
      <path
         d="m 140,99 11,-1 7,-9 1,21 6,-2 -7,17 -11,-5 8,0 2,-12 -15,1 -2,-10 z"
         id="path3007"
         style="fill:none;stroke:#000000;stroke-opacity:1" />
    </g>
    <g
       transform="translate(260.5,350.00504)"
       id="g3009"
       style="fill:none;stroke:#000000;stroke-opacity:1">
      <path
         d="m 140,132 26,0 1,11 -10,4 -17,-15 z"
         id="path3011"
         style="fill:none;stroke:#000000;stroke-opacity:1" />
    </g>
    <g
       transform="translate(260.5,350.00504)"
       id="g3013"
       style="fill:none;stroke:#000000;stroke-opacity:1">
      <path
         d="m 16,162 22,-10 22,-6 25,-5 17,1 -22,10 -20,10 -24,8 -19,3 -1,-11 z"
         id="path3015"
         style="fill:none;stroke:#000000;stroke-opacity:1" />
    </g>
    <g
       transform="translate(260.5,350.00504)"
       id="g3017"
       style="fill:none;stroke:#000000;stroke-opacity:1">
      <path
         d="m 51,159 6,-2 -1,-7 -8,10 3,-1 z"
         id="path3019"
         style="fill:none;stroke:#000000;stroke-opacity:1" />
    </g>
    <g
       transform="translate(260.5,350.00504)"
       id="g3021"
       style="fill:none;stroke:#000000;stroke-opacity:1">
      <path
         d="m 64,151 0,-4 -4,4 4,0 z"
         id="path3023"
         style="fill:none;stroke:#000000;stroke-opacity:1" />
    </g>
    <g
       transform="translate(260.5,350.00504)"
       id="g3025"
       style="fill:none;stroke:#000000;stroke-opacity:1">
      <path
         d="m 217,149 15,5 -11,3 -4,-8 z"
         id="path3027"
         style="fill:none;stroke:#000000;stroke-opacity:1" />
    </g>
    <g
       transform="translate(260.5,350.00504)"
       id="g3029"
       style="fill:none;stroke:#000000;stroke-opacity:1">
      <path
         d="m 107,302 9,-1 -2,-8 17,-13 7,-21 3,-23 0,-26 2,-28 -4,-12 -11,-1 4,-4 -4,-2 17,-5 27,-3 -5,25 1,27 -3,29 3,27 0,10 19,9 14,2 6,10 7,-1 5,-11 18,-6 23,1 11,5 7,-7 14,6 7,-17 -6,-20 -12,-20 -9,-19 -6,-10 8,-4 1,11 8,-4 1,-15 -14,2 -8,-6 6,2 3,-7 9,3 -1,-11 12,-6 -4,4 13,3 3,23 -6,10 4,4 -19,5 7,9 12,-6 -6,12 7,3 2,24 -1,29 0,22 -31,1 -32,0 -31,-1 -15,1 -32,0 -32,0 -23,-1 z"
         id="path3031"
         style="fill:none;stroke:#000000;stroke-opacity:1" />
    </g>
    <g
       transform="translate(260.5,350.00504)"
       id="g3033"
       style="fill:none;stroke:#000000;stroke-opacity:1">
      <path
         d="m 155,211 -1,-11 1,11 z"
         id="path3035"
         style="fill:none;stroke:#000000;stroke-opacity:1" />
    </g>
    <g
       transform="translate(260.5,350.00504)"
       id="g3037"
       style="fill:none;stroke:#000000;stroke-opacity:1">
      <path
         d="m 177,284 0,-4 -4,4 4,0 z"
         id="path3039"
         style="fill:none;stroke:#000000;stroke-opacity:1" />
    </g>
    <g
       transform="translate(260.5,350.00504)"
       id="g3041"
       style="fill:none;stroke:#000000;stroke-opacity:1">
      <path
         d="m 293,192 -7,3 7,-3 z"
         id="path3043"
         style="fill:none;stroke:#000000;stroke-opacity:1" />
    </g>
    <g
       transform="translate(260.5,350.00504)"
       id="g3045"
       style="fill:none;stroke:#000000;stroke-opacity:1">
      <path
         d="m 255,287 -6,0 6,0 z"
         id="path3047"
         style="fill:none;stroke:#000000;stroke-opacity:1" />
    </g>
    <g
       transform="translate(260.5,350.00504)"
       id="g3049"
       style="fill:none;stroke:#000000;stroke-opacity:1">
      <path
         d="m 247,291 -2,6 6,-2 -4,-4 z"
         id="path3051"
         style="fill:none;stroke:#000000;stroke-opacity:1" />
    </g>
    <g
       transform="translate(260.5,350.00504)"
       id="g3053"
       style="fill:none;stroke:#000000;stroke-opacity:1">
      <path
         d="m 248,163 7,-3 7,7 1,3 -15,-5 0,-2 z"
         id="path3055"
         style="fill:none;stroke:#000000;stroke-opacity:1" />
    </g>
    <g
       transform="translate(260.5,350.00504)"
       id="g3057"
       style="fill:none;stroke:#000000;stroke-opacity:1">
      <path
         d="m 200,165 24,0 10,6 2,18 -8,-2 4,-4 -18,-10 -11,1 -3,-9 z"
         id="path3059"
         style="fill:none;stroke:#000000;stroke-opacity:1" />
    </g>
    <g
       transform="translate(260.5,350.00504)"
       id="g3061"
       style="fill:none;stroke:#000000;stroke-opacity:1">
      <path
         d="m 15,192 30,-2 27,3 25,-1 21,-1 13,3 9,-7 -5,-11 -20,4 6,-2 4,-20 21,-5 4,-2 -15,-17 -1,-25 8,-24 5,-11 12,0 6,24 5,27 3,13 -7,13 9,1 -5,27 3,19 27,1 26,2 13,-3 -24,-8 -12,-4 2,-6 -9,-19 15,-15 27,1 27,-1 25,-1 13,-1 3,29 0,30 0,28 0,30 0,32 -3,13 -32,0 -32,0 -32,0 -32,0 -32,0 -32,0 -31,-1 -31,1 -31,-1 -2,-24 -1,-27 1,-31 5,-11 5,9 21,-11 18,8 19,-3 22,-2 24,0 6,-8 -27,-3 -25,-3 -30,-2 -29,1 -10,-6 z"
         id="path3063"
         style="fill:none;stroke:#000000;stroke-opacity:1" />
    </g>
    <g
       transform="translate(260.5,350.00504)"
       id="g3065"
       style="fill:none;stroke:#000000;stroke-opacity:1">
      <path
         d="m 154,80 -5,-1 5,1 z"
         id="path3067"
         style="fill:none;stroke:#000000;stroke-opacity:1" />
    </g>
    <g
       transform="translate(260.5,350.00504)"
       id="g3069"
       style="fill:none;stroke:#000000;stroke-opacity:1">
      <path
         d="m 153,86 -6,-4 -1,5 7,-1 z"
         id="path3071"
         style="fill:none;stroke:#000000;stroke-opacity:1" />
    </g>
    <g
       transform="translate(260.5,350.00504)"
       id="g3073"
       style="fill:none;stroke:#000000;stroke-opacity:1">
      <path
         d="m 139,121 1,-13 -4,14 3,-1 z"
         id="path3075"
         style="fill:none;stroke:#000000;stroke-opacity:1" />
    </g>
    <g
       transform="translate(260.5,350.00504)"
       id="g3077"
       style="fill:none;stroke:#000000;stroke-opacity:1">
      <path
         d="m 151,110 4,-4 -2,14 -7,-1 6,6 11,-3 3,-13 -6,0 -1,-21 -7,9 -8,-6 -5,11 12,8 z"
         id="path3079"
         style="fill:none;stroke:#000000;stroke-opacity:1" />
    </g>
    <g
       transform="translate(260.5,350.00504)"
       id="g3081"
       style="fill:none;stroke:#000000;stroke-opacity:1">
      <path
         d="m 158,147 11,-5 -3,-11 -26,0 14,16 4,0 z"
         id="path3083"
         style="fill:none;stroke:#000000;stroke-opacity:1" />
    </g>
    <g
       transform="translate(260.5,350.00504)"
       id="g3085"
       style="fill:none;stroke:#000000;stroke-opacity:1">
      <path
         d="m 161,154 -5,1 5,-1 z"
         id="path3087"
         style="fill:none;stroke:#000000;stroke-opacity:1" />
    </g>
    <g
       transform="translate(260.5,350.00504)"
       id="g3089"
       style="fill:none;stroke:#000000;stroke-opacity:1">
      <path
         d="m 173,155 -26,2 -20,4 4,4 -4,4 11,3 3,25 0,28 -4,22 -1,23 -13,11 -12,16 4,2 -9,3 28,2 32,0 32,0 10,-4 28,4 32,0 32,0 4,-16 0,-28 -1,-25 1,-7 -7,-3 7,-13 -11,-1 -4,6 -6,-8 16,-2 2,-10 3,-27 -8,-6 -3,5 -1,-11 -14,8 4,10 -12,-4 -9,7 5,7 15,-1 -5,17 1,-11 -13,1 13,19 7,21 8,22 6,12 -8,8 2,6 -15,-7 -5,9 -21,-5 -22,-2 -15,15 -5,3 -7,-9 -24,-6 -10,-16 -2,-28 3,-29 -1,-27 5,-23 z"
         id="path3091"
         style="fill:none;stroke:#000000;stroke-opacity:1" />
    </g>
    <g
       transform="translate(260.5,350.00504)"
       id="g3093"
       style="fill:none;stroke:#000000;stroke-opacity:1">
      <path
         d="m 222,148 -6,4 7,7 11,-5 -12,-6 z"
         id="path3095"
         style="fill:none;stroke:#000000;stroke-opacity:1" />
    </g>
    <g
       transform="translate(260.5,350.00504)"
       id="g3097"
       style="fill:none;stroke:#000000;stroke-opacity:1">
      <path
         d="m 278,154 1,-5 -12,0 11,5 z"
         id="path3099"
         style="fill:none;stroke:#000000;stroke-opacity:1" />
    </g>
    <g
       transform="translate(260.5,350.00504)"
       id="g3101"
       style="fill:none;stroke:#000000;stroke-opacity:1">
      <path
         d="m 303,153 -6,4 7,1 -1,-5 z"
         id="path3103"
         style="fill:none;stroke:#000000;stroke-opacity:1" />
    </g>
    <g
       transform="translate(260.5,350.00504)"
       id="g3105"
       style="fill:none;stroke:#000000;stroke-opacity:1">
      <path
         d="m 259,157 -12,8 7,9 9,-3 3,-7 -6,-2 -1,-5 z"
         id="path3107"
         style="fill:none;stroke:#000000;stroke-opacity:1" />
    </g>
    <g
       transform="translate(260.5,350.00504)"
       id="g3109"
       style="fill:none;stroke:#000000;stroke-opacity:1">
      <path
         d="m 237,174 -12,-12 -26,2 4,12 10,2 3,-5 15,9 -4,4 10,4 0,-16 z"
         id="path3111"
         style="fill:none;stroke:#000000;stroke-opacity:1" />
    </g>
    <g
       transform="translate(260.5,350.00504)"
       id="g3113"
       style="fill:none;stroke:#000000;stroke-opacity:1">
      <path
         d="m 48,215 -3,7 7,3 -4,-10 z"
         id="path3115"
         style="fill:none;stroke:#000000;stroke-opacity:1" />
    </g>
    <g
       transform="translate(260.5,350.00504)"
       id="g3117"
       style="fill:none;stroke:#000000;stroke-opacity:1">
      <path
         d="m 57,266 -7,-1 8,6 -1,-5 z"
         id="path3119"
         style="fill:none;stroke:#000000;stroke-opacity:1" />
    </g>
    <g
       transform="translate(260.5,350.00504)"
       id="g3121"
       style="fill:none;stroke:#000000;stroke-opacity:1">
      <path
         d="m 101,287 -10,8 10,-8 z"
         id="path3123"
         style="fill:none;stroke:#000000;stroke-opacity:1" />
    </g>
    <g
       transform="translate(260.5,350.00504)"
       id="g3125"
       style="fill:none;stroke:#000000;stroke-opacity:1">
      <path
         d="m 28,296 -3,5 3,-5 z"
         id="path3127"
         style="fill:none;stroke:#000000;stroke-opacity:1" />
    </g>
    <g
       transform="translate(260.5,350.00504)"
       id="g3129"
       style="fill:none;stroke:#000000;stroke-opacity:1">
      <path
         d="m 56,298 -19,3 23,1 -4,-4 z"
         id="path3131"
         style="fill:none;stroke:#000000;stroke-opacity:1" />
    </g>
    <g
       transform="translate(260.5,350.00504)"
       id="g3133"
       style="fill:none;stroke:#000000;stroke-opacity:1">
      <path
         d="m 85,300 -20,2 30,2 6,-2 -16,-2 z"
         id="path3135"
         style="fill:none;stroke:#000000;stroke-opacity:1" />
    </g>
    <g
       transform="translate(260.5,350.00504)"
       id="g3137"
       style="fill:none;stroke:#000000;stroke-opacity:1">
      <path
         d="m 195,224 18,4 25,-3 12,-4 -7,-9 -25,-3 -25,-1 -14,0 3,9 13,7 z"
         id="path3139"
         style="fill:none;stroke:#000000;stroke-opacity:1" />
    </g>
    <g
       transform="translate(260.5,350.00504)"
       id="g3141"
       style="fill:none;stroke:#000000;stroke-opacity:1">
      <path
         d="m 274,79 10,-2 -2,-4 23,1 -3,9 -26,-4 -2,0 z"
         id="path3143"
         style="fill:none;stroke:#000000;stroke-opacity:1" />
    </g>
    <g
       transform="translate(260.5,350.00504)"
       id="g3145"
       style="fill:none;stroke:#000000;stroke-opacity:1">
      <path
         d="m 14,158 22,-10 25,-7 28,-4 23,5 -23,9 -18,12 -25,7 -24,8 -6,0 -2,-20 z"
         id="path3147"
         style="fill:none;stroke:#000000;stroke-opacity:1" />
    </g>
    <g
       transform="translate(260.5,350.00504)"
       id="g3149"
       style="fill:none;stroke:#000000;stroke-opacity:1">
      <path
         d="m 25,174 24,-8 25,-7 20,-12 9,-5 -24,-2 -26,6 -25,7 -11,5 -2,14 10,2 z"
         id="path3151"
         style="fill:none;stroke:#000000;stroke-opacity:1" />
    </g>
    <g
       transform="translate(260.5,350.00504)"
       id="g3153"
       style="fill:none;stroke:#000000;stroke-opacity:1">
      <path
         d="m 13,15 30,-2 31,1 17,11 26,0 10,2 -7,1 19,7 -26,4 L 82,38 51,37 33,35 14,38 13,15 z"
         id="path3155"
         style="fill:none;stroke:#000000;stroke-opacity:1" />
    </g>
    <g
       transform="translate(260.5,350.00504)"
       id="g3157"
       style="fill:none;stroke:#000000;stroke-opacity:1">
      <path
         d="m 101,14 31,-1 27,3 -26,0 -27,-1 -5,-1 z"
         id="path3159"
         style="fill:none;stroke:#000000;stroke-opacity:1" />
    </g>
    <g
       transform="translate(260.5,350.00504)"
       id="g3161"
       style="fill:none;stroke:#000000;stroke-opacity:1">
      <path
         d="m 10,156 1,-31 1,-31 0,-32 2,-14 31,1 29,3 30,2 29,3 31,1 30,2 31,1 29,1 32,0 22,2 0,28 1,31 1,31 0,32 0,32 0,30 0,32 -3,29 -31,1 -32,0 -32,0 -32,0 -32,0 -32,0 -32,0 -32,0 -32,0 -10,-6 1,-31 -1,-31 0,-32 0,-30 0,-24 z"
         id="path3163"
         style="fill:none;stroke:#000000;stroke-opacity:1" />
    </g>
    <g
       transform="translate(260.5,350.00504)"
       id="g3165"
       style="fill:none;stroke:#000000;stroke-opacity:1">
      <path
         d="m 306,308 3,-27 0,-32 0,-32 0,-32 0,-32 -3,-29 -24,-4 -30,0 -28,-2 -21,-3 -22,2 -10,-22 -8,-24 -10,-6 -15,17 -10,22 -10,16 -22,-10 -26,-4 -15,-3 -22,-6 -16,0 -5,27 -1,31 0,32 0,32 0,32 0,32 4,26 32,0 32,0 32,0 32,0 32,0 32,0 32,0 32,0 32,0 3,-1 z"
         id="path3167"
         style="fill:none;stroke:#000000;stroke-opacity:1" />
    </g>
    <g
       transform="translate(260.5,350.00504)"
       id="g3169"
       style="fill:none;stroke:#000000;stroke-opacity:1">
      <path
         d="m 266,67 -13,7 -31,-1 -31,-1 -8,4 26,6 30,0 29,3 30,2 10,2 -1,-21 -30,0 -11,-1 z"
         id="path3171"
         style="fill:none;stroke:#000000;stroke-opacity:1" />
    </g>
    <g
       transform="translate(260.5,350.00504)"
       id="g3173"
       style="fill:none;stroke:#000000;stroke-opacity:1">
      <path
         d="m 13,156 5,-11 12,2 20,-12 22,-2 29,1 24,8 8,0 -3,-23 8,-24 9,-23 11,-1 7,25 8,24 0,26 8,16 -2,6 18,-10 -6,-16 29,-1 28,2 27,-1 24,0 6,0 2,30 0,32 0,32 0,32 0,32 -2,6 -31,1 -32,0 -32,0 -32,0 -32,0 -32,0 -32,0 -32,0 -32,0 -5,-3 1,-31 -1,-31 1,-31 0,-30 -1,-25 z"
         id="path3175"
         style="fill:none;stroke:#000000;stroke-opacity:1" />
    </g>
    <g
       transform="translate(260.5,350.00504)"
       id="g3177"
       style="fill:none;stroke:#000000;stroke-opacity:1">
      <path
         d="m 114,142 -22,-6 -29,3 -25,7 -23,9 -2,22 24,-2 24,-8 22,-10 20,-10 11,-5 z"
         id="path3179"
         style="fill:none;stroke:#000000;stroke-opacity:1" />
    </g>
    <g
       transform="translate(260.5,350.00504)"
       id="g3181"
       style="fill:none;stroke:#000000;stroke-opacity:1">
      <path
         d="m 117,147 -20,8 15,1 5,-9 z"
         id="path3183"
         style="fill:none;stroke:#000000;stroke-opacity:1" />
    </g>
    <g
       transform="translate(260.5,350.00504)"
       id="g3185"
       style="fill:none;stroke:#000000;stroke-opacity:1">
      <path
         d="m 139,150 -19,11 -5,17 1,5 22,-4 -2,12 -19,-1 -4,4 -24,-6 -25,3 -30,-2 -19,1 5,9 30,-2 30,2 27,3 27,3 -2,6 -24,0 -19,5 -25,-1 -15,-5 -20,10 -9,-9 -6,26 2,30 -2,28 1,11 31,1 32,0 30,0 32,0 32,0 32,0 32,0 32,0 32,0 6,-2 1,-31 -1,-31 1,-29 0,-28 0,-32 -5,-11 -25,1 -27,3 -26,-4 -24,8 -4,20 8,10 -4,4 24,8 13,3 -22,2 -24,0 -19,-3 2,-26 2,-18 -9,-3 7,-9 -3,-29 -9,-21 -1,-13 -11,-5 -11,21 -8,24 0,16 13,19 -5,-1 z"
         id="path3187"
         style="fill:none;stroke:#000000;stroke-opacity:1" />
    </g>
    <g
       transform="translate(260.5,350.00504)"
       id="g3189"
       style="fill:none;stroke:#000000;stroke-opacity:1">
      <path
         d="m 194,76 30,0 31,1 7,-1 -3,-3 25,-3 22,2 0,14 -28,-4 -30,-2 -27,-1 -27,-3 z"
         id="path3191"
         style="fill:none;stroke:#000000;stroke-opacity:1" />
    </g>
    <g
       transform="translate(260.5,350.00504)"
       id="g3193"
       style="fill:none;stroke:#000000;stroke-opacity:1">
      <path
         d="m 296,72 -19,5 9,5 18,2 0,-12 -8,0 z"
         id="path3195"
         style="fill:none;stroke:#000000;stroke-opacity:1" />
    </g>
    <g
       transform="translate(260.5,350.00504)"
       id="g3197"
       style="fill:none;stroke:#000000;stroke-opacity:1">
      <path
         d="m 178,210 27,-1 25,3 13,1 6,8 -19,5 -20,-4 -16,2 -13,-9 -3,-5 z"
         id="path3199"
         style="fill:none;stroke:#000000;stroke-opacity:1" />
    </g>
    <g
       transform="translate(260.5,350.00504)"
       id="g3201"
       style="fill:none;stroke:#000000;stroke-opacity:1">
      <path
         d="m 0,0 32,0 32,0 32,0 32,0 32,0 32,0 32,0 32,0 32,0 31,1 0,32 0,32 0,32 0,32 0,32 0,32 0,32 0,32 0,32 0,30 -32,0 -32,0 -32,0 -32,0 -32,0 -32,0 -32,0 -32,0 -32,0 L 0,318 0,286 0,254 0,222 0,190 0,158 0,126 0,94 0,62 0,30 0,0 z"
         id="path3203"
         style="fill:none;stroke:#000000;stroke-opacity:1" />
    </g>
    <g
       transform="translate(260.5,350.00504)"
       id="g3205"
       style="fill:none;stroke:#000000;stroke-opacity:1">
      <path
         d="m 19,38 16,-2 23,3 32,0 30,2 15,-1 7,-7 -21,-5 7,-1 -23,-1 -25,-7 -2,-6 -31,-1 -32,0 -1,27 5,-1 z"
         id="path3207"
         style="fill:none;stroke:#000000;stroke-opacity:1" />
    </g>
    <g
       transform="translate(260.5,350.00504)"
       id="g3209"
       style="fill:none;stroke:#000000;stroke-opacity:1">
      <path
         d="m 128,17 26,2 5,-7 -32,0 -27,1 23,5 5,-1 z"
         id="path3211"
         style="fill:none;stroke:#000000;stroke-opacity:1" />
    </g>
    <g
       transform="translate(260.5,350.00504)"
       id="g3213"
       style="fill:none;stroke:#000000;stroke-opacity:1">
      <path
         d="m 306,310 5,-27 0,-32 0,-30 0,-32 0,-32 -1,-31 -1,-31 0,-28 -2,-6 -32,0 -30,0 -31,-1 -30,-2 -31,-1 -30,-2 -29,-3 -30,-2 -30,-2 -22,0 -1,31 -1,31 0,32 -1,31 0,30 0,32 1,31 -1,31 3,13 31,1 32,0 32,0 32,0 32,0 32,0 32,0 32,0 32,0 7,-1 z"
         id="path3215"
         style="fill:none;stroke:#000000;stroke-opacity:1" />
    </g>
  </g>
</svg>
