<?xml version="1.0" encoding="UTF-8" standalone="no"?>
<!-- Created with Inkscape (http://www.inkscape.org/) -->

<svg
   xmlns:dc="http://purl.org/dc/elements/1.1/"
   xmlns:cc="http://creativecommons.org/ns#"
   xmlns:rdf="http://www.w3.org/1999/02/22-rdf-syntax-ns#"
   xmlns:svg="http://www.w3.org/2000/svg"
   xmlns="http://www.w3.org/2000/svg"
   version="1.2"
   width="744.09448"
   height="1052.3622"
   id="svg2">
  <defs
     id="defs4" />
  <metadata
     id="metadata7">
    <rdf:RDF>
      <cc:Work
         rdf:about="">
        <dc:format>image/svg+xml</dc:format>
        <dc:type
           rdf:resource="http://purl.org/dc/dcmitype/StillImage" />
        <dc:title></dc:title>
      </cc:Work>
    </rdf:RDF>
  </metadata>
  <g
     id="layer1">
    <flowRoot
       id="flowRoot2997"
       xml:space="preserve"
       style="font-size:40px;font-style:normal;font-weight:normal;line-height:125%;letter-spacing:0px;word-spacing:0px;fill:#000000;fill-opacity:1;stroke:none;font-family:Sans"><flowRegion
         id="flowRegion2999"><rect
           width="274.28571"
           height="260"
           x="154.28572"
           y="263.79074"
           id="rect3001" /></flowRegion><flowPara
         id="flowPara3003"></flowPara></flowRoot>    <path
       d="m 155.43815,266.52174 0,-46.01812 -7.72116,0 0,-7.67705 21.92809,0 c 6.44162,7e-5 11.2655,0.45598 14.47166,1.36775 3.20607,0.91191 5.89009,2.97823 8.05206,6.19899 2.16187,3.22089 3.24285,7.02264 3.24289,11.40526 -4e-5,3.50031 -0.71334,6.64024 -2.13987,9.41981 -1.42662,2.77967 -3.19146,4.83128 -5.29451,6.15487 -2.10312,1.32366 -4.47095,2.21343 -7.10347,2.66932 -2.63258,0.45595 -6.6108,0.6839 -11.9347,0.68388 l -4.2356,0 0,15.79529 7.94175,0 0,7.67703 -24.9283,0 0,-7.67703 z"
       id="path3503"
       style="font-size:40px;font-style:normal;font-weight:normal;line-height:125%;letter-spacing:0px;word-spacing:0px;fill:none;stroke:#000000;stroke-width:2.25899076;font-family:Rockwell;-inkscape-font-specification:Rockwell" />
    <path
       d="m 164.70354,243.31414 5.29451,0 c 6.02983,2e-5 10.20659,-0.86034 12.53032,-2.58108 2.32367,-1.72067 3.48551,-4.75766 3.48556,-9.11096 -5e-5,-2.76487 -0.61772,-5.05915 -1.85307,-6.88287 -1.23542,-1.82362 -2.76494,-2.98546 -4.58858,-3.48556 -1.8237,-0.49998 -4.86803,-0.74998 -9.13303,-0.75005 l -5.73571,0 z"
       id="path3423"
       style="font-size:40px;font-style:normal;font-weight:normal;line-height:125%;letter-spacing:0px;word-spacing:0px;fill:none;stroke:#000000;stroke-width:2.25899076;font-family:Rockwell;-inkscape-font-specification:Rockwell" />
    <path
       d="m 201.23564,252.84426 c 0,-6.58871 2.17663,-11.99351 6.52991,-16.21445 4.35325,-4.22086 9.66245,-6.3313 15.92764,-6.33134 6.14749,4e-5 11.42729,2.08107 15.83942,6.2431 4.41203,4.1621 6.61807,9.59633 6.61814,16.30269 -7e-5,6.7064 -2.19875,12.14797 -6.5961,16.32473 -4.39742,4.17678 -9.68456,6.26517 -15.86146,6.26517 -6.35343,0 -11.68469,-2.1178 -15.99383,-6.35341 -4.30914,-4.23561 -6.46372,-9.64776 -6.46372,-16.23649 z"
       id="path3499"
       style="font-size:40px;font-style:normal;font-weight:normal;line-height:125%;letter-spacing:0px;word-spacing:0px;fill:none;stroke:#000000;stroke-width:2.25899076;font-family:Rockwell;-inkscape-font-specification:Rockwell" />
    <path
       d="m 210.10396,252.84426 c -2e-5,4.20621 1.31625,7.65499 3.94881,10.34635 2.63254,2.69139 5.846,4.03707 9.64042,4.03707 3.85321,0 7.08138,-1.36039 9.68455,-4.08118 2.6031,-2.7208 3.90466,-6.15487 3.90471,-10.30224 -5e-5,-4.17677 -1.32368,-7.61818 -3.9709,-10.32429 -2.64729,-2.70607 -5.85341,-4.05909 -9.61836,-4.05914 -3.94148,5e-5 -7.19172,1.3825 -9.75073,4.14737 -2.559,2.76494 -3.83852,6.17694 -3.8385,10.23606 z"
       id="path3425"
       style="font-size:40px;font-style:normal;font-weight:normal;line-height:125%;letter-spacing:0px;word-spacing:0px;fill:none;stroke:#000000;stroke-width:2.25899076;font-family:Rockwell;-inkscape-font-specification:Rockwell" />
    <path
       d="m 259.07816,266.74234 0,-46.45931 -7.58878,0 0,-7.45646 15.97176,0 0,53.91577 6.52991,0 0,7.45643 -22.50167,0 0,-7.45643 z"
       id="path3427"
       style="font-size:40px;font-style:normal;font-weight:normal;line-height:125%;letter-spacing:0px;word-spacing:0px;fill:none;stroke:#000000;stroke-width:2.25899076;font-family:Rockwell;-inkscape-font-specification:Rockwell" />
    <path
       d="m 322.96524,266.74234 0,7.45643 -14.64813,0 0,-5.20625 c -4.05916,3.94146 -8.58891,5.91218 -13.58925,5.91218 -3.88264,0 -7.25789,-1.26479 -10.12575,-3.79438 -2.86785,-2.5296 -4.30179,-5.76513 -4.30179,-9.70661 0,-3.97086 1.52217,-7.26523 4.56653,-9.88309 3.04432,-2.61781 6.71372,-3.92673 11.00817,-3.92676 4.00027,3e-5 7.8682,1.20601 11.60378,3.61791 l 0,-4.2356 c -2e-5,-2.17661 -0.20602,-3.85319 -0.61767,-5.02978 -0.41184,-1.17653 -1.37514,-2.23543 -2.88993,-3.17671 -1.51486,-0.94121 -3.49294,-1.41182 -5.93426,-1.41187 -4.20622,5e-5 -7.25057,1.67663 -9.13303,5.02978 l -8.03001,-2.1178 c 3.55908,-6.64751 9.70659,-9.97128 18.44253,-9.97132 3.2061,4e-5 5.97836,0.4339 8.3168,1.30156 2.33837,0.86775 4.08116,1.98549 5.22834,3.3532 1.14709,1.36777 1.91922,2.84583 2.31635,4.43415 0.39704,1.58839 0.59558,4.11798 0.59562,7.58879 l 0,19.76617 z"
       id="path3493"
       style="font-size:40px;font-style:normal;font-weight:normal;line-height:125%;letter-spacing:0px;word-spacing:0px;fill:none;stroke:#000000;stroke-width:2.25899076;font-family:Rockwell;-inkscape-font-specification:Rockwell" />
    <path
       d="m 307.4788,258.31524 c -3.61793,-2.82372 -7.27996,-4.23559 -10.9861,-4.23561 -2.32371,2e-5 -4.26505,0.67655 -5.82395,2.02957 -1.55895,1.35307 -2.33842,3.1032 -2.33842,5.25039 0,2.00015 0.68386,3.67676 2.05162,5.02978 1.36775,1.35304 3.22816,2.02957 5.58131,2.02957 4.05909,0 7.89761,-1.70602 11.51554,-5.11804 z"
       id="path3429"
       style="font-size:40px;font-style:normal;font-weight:normal;line-height:125%;letter-spacing:0px;word-spacing:0px;fill:none;stroke:#000000;stroke-width:2.25899076;font-family:Rockwell;-inkscape-font-specification:Rockwell" />
    <path
       d="m 334.74554,266.74234 0,-27.79619 -8.60359,0 0,-7.45643 15.30997,0 0,9.61838 c 0.94121,-2.50016 2.25014,-4.57385 3.92676,-6.22106 1.67658,-1.64714 3.44876,-2.73546 5.31656,-3.26494 1.86775,-0.52942 4.41942,-0.79415 7.65499,-0.79419 l 2.20604,0 0,8.47121 -1.6766,0 c -4.26504,5e-5 -7.44911,0.42654 -9.55218,1.27952 -2.10312,0.85304 -3.66205,2.40462 -4.67682,4.65476 -1.0148,2.25018 -1.52217,6.28725 -1.52217,12.11119 l 0,9.39775 9.30953,0 0,7.45643 -26.29608,0 0,-7.45643 z"
       id="path3431"
       style="font-size:40px;font-style:normal;font-weight:normal;line-height:125%;letter-spacing:0px;word-spacing:0px;fill:none;stroke:#000000;stroke-width:2.25899076;font-family:Rockwell;-inkscape-font-specification:Rockwell" />
    <path
       d="m 417.38401,231.48972 0,7.45643 -7.67704,0 0,31.8112 c -5e-5,4.29443 -0.22071,7.47848 -0.66182,9.55217 -0.44125,2.07368 -1.50752,4.19149 -3.19875,6.35341 -1.69136,2.16192 -4.22831,3.97822 -7.61086,5.44893 -3.38266,1.47067 -7.16233,2.20602 -11.33909,2.20604 -6.29459,-2e-5 -11.91266,-1.89721 -16.85418,-5.69159 l 5.47099,-6.08868 c 3.70614,2.88256 7.73584,4.32384 12.08912,4.32384 2.41192,0 4.64738,-0.46327 6.70638,-1.3898 2.05896,-0.92654 3.59582,-2.05164 4.61064,-3.37525 1.01474,-1.32363 1.6692,-2.58107 1.96338,-3.77233 0.2941,-1.19128 0.44118,-3.19878 0.44121,-6.02251 l 0,-3.88264 c -1.32366,1.6766 -3.39734,3.26494 -6.22104,4.76504 -2.82378,1.50013 -5.91223,2.25018 -9.26541,2.25018 -6.11811,0 -11.10377,-2.1178 -14.95698,-6.35341 -3.85323,-4.23561 -5.77985,-9.44186 -5.77983,-15.6188 -2e-5,-6.76518 2.12515,-12.22882 6.37546,-16.39092 4.25031,-4.16203 9.16979,-6.24308 14.75846,-6.24312 5.64743,4e-5 10.67721,2.25022 15.08934,6.75052 l 0,-6.08871 z"
       id="path3487"
       style="font-size:40px;font-style:normal;font-weight:normal;line-height:125%;letter-spacing:0px;word-spacing:0px;fill:none;stroke:#000000;stroke-width:2.25899076;font-family:Rockwell;-inkscape-font-specification:Rockwell" />
    <path
       d="m 374.01315,253.28546 c -2e-5,4.32387 1.25742,7.85354 3.77233,10.58902 2.51487,2.7355 5.72835,4.10325 9.64043,4.10325 3.82377,0 7.11815,-1.37509 9.88308,-4.1253 2.76487,-2.75021 4.14733,-6.28722 4.14737,-10.61109 -4e-5,-4.38264 -1.3825,-7.90498 -4.14737,-10.56695 -2.76493,-2.66192 -5.97105,-3.99292 -9.61835,-3.99294 -3.64737,2e-5 -6.83878,1.31629 -9.57424,3.9488 -2.73552,2.63258 -4.10327,6.18433 -4.10325,10.65521 z"
       id="path3433"
       style="font-size:40px;font-style:normal;font-weight:normal;line-height:125%;letter-spacing:0px;word-spacing:0px;fill:none;stroke:#000000;stroke-width:2.25899076;font-family:Rockwell;-inkscape-font-specification:Rockwell" />
    <path
       d="m 428.98781,266.74234 0,-27.79619 -8.60359,0 0,-7.45643 15.30997,0 0,9.61838 c 0.94121,-2.50016 2.25014,-4.57385 3.92676,-6.22106 1.67658,-1.64714 3.44876,-2.73546 5.31656,-3.26494 1.86775,-0.52942 4.41942,-0.79415 7.655,-0.79419 l 2.20604,0 0,8.47121 -1.6766,0 c -4.26505,5e-5 -7.44912,0.42654 -9.55219,1.27952 -2.10312,0.85304 -3.66205,2.40462 -4.67681,4.65476 -1.01481,2.25018 -1.52218,6.28725 -1.52218,12.11119 l 0,9.39775 9.30953,0 0,7.45643 -26.29608,0 0,-7.45643 z"
       id="path3435"
       style="font-size:40px;font-style:normal;font-weight:normal;line-height:125%;letter-spacing:0px;word-spacing:0px;fill:none;stroke:#000000;stroke-width:2.25899076;font-family:Rockwell;-inkscape-font-specification:Rockwell" />
    <path
       d="m 502.97857,266.74234 0,7.45643 -14.64813,0 0,-5.20625 c -4.05916,3.94146 -8.58891,5.91218 -13.58925,5.91218 -3.88264,0 -7.25789,-1.26479 -10.12575,-3.79438 -2.86785,-2.5296 -4.30179,-5.76513 -4.30179,-9.70661 0,-3.97086 1.52217,-7.26523 4.56652,-9.88309 3.04433,-2.61781 6.71372,-3.92673 11.00818,-3.92676 4.00026,3e-5 7.8682,1.20601 11.60378,3.61791 l 0,-4.2356 c -2e-5,-2.17661 -0.20602,-3.85319 -0.61768,-5.02978 -0.41183,-1.17653 -1.37514,-2.23543 -2.88992,-3.17671 -1.51486,-0.94121 -3.49295,-1.41182 -5.93426,-1.41187 -4.20622,5e-5 -7.25057,1.67663 -9.13303,5.02978 l -8.03001,-2.1178 c 3.55908,-6.64751 9.70659,-9.97128 18.44253,-9.97132 3.2061,4e-5 5.97835,0.4339 8.31679,1.30156 2.33837,0.86775 4.08116,1.98549 5.22835,3.3532 1.14709,1.36777 1.91921,2.84583 2.31634,4.43415 0.39704,1.58839 0.59559,4.11798 0.59563,7.58879 l 0,19.76617 z"
       id="path3481"
       style="font-size:40px;font-style:normal;font-weight:normal;line-height:125%;letter-spacing:0px;word-spacing:0px;fill:none;stroke:#000000;stroke-width:2.25899076;font-family:Rockwell;-inkscape-font-specification:Rockwell" />
    <path
       d="m 487.49213,258.31524 c -3.61793,-2.82372 -7.27996,-4.23559 -10.98611,-4.23561 -2.32371,2e-5 -4.26504,0.67655 -5.82395,2.02957 -1.55895,1.35307 -2.33841,3.1032 -2.33841,5.25039 0,2.00015 0.68386,3.67676 2.05161,5.02978 1.36775,1.35304 3.22817,2.02957 5.58131,2.02957 4.05909,0 7.89762,-1.70602 11.51555,-5.11804 z"
       id="path3437"
       style="font-size:40px;font-style:normal;font-weight:normal;line-height:125%;letter-spacing:0px;word-spacing:0px;fill:none;stroke:#000000;stroke-width:2.25899076;font-family:Rockwell;-inkscape-font-specification:Rockwell" />
    <path
       d="m 512.59695,285.89081 0,-46.94466 -7.19173,0 0,-7.45643 15.57468,0 0,6.70638 c 4.17677,-4.91208 9.23596,-7.36815 15.1776,-7.36819 6.00042,4e-5 10.96401,2.05902 14.89081,6.17694 3.92672,4.11798 5.8901,9.47131 5.89014,16.06 -4e-5,6.9123 -2.13255,12.36858 -6.39753,16.36887 -4.26506,4.00029 -9.11835,6.00044 -14.55989,6.00044 -5.6475,0 -10.64787,-2.17662 -15.00113,-6.5299 l 0,16.98655 8.29475,0 0,7.45645 -24.48712,0 0,-7.45645 z"
       id="path3477"
       style="font-size:40px;font-style:normal;font-weight:normal;line-height:125%;letter-spacing:0px;word-spacing:0px;fill:none;stroke:#000000;stroke-width:2.25899076;font-family:Rockwell;-inkscape-font-specification:Rockwell" />
    <path
       d="m 520.84755,253.46195 c -2e-5,2.35313 0.48532,4.60329 1.45599,6.7505 0.97064,2.14722 2.51486,3.94883 4.63269,5.40482 2.11778,1.45598 4.60326,2.18399 7.45643,2.18397 4.00027,2e-5 7.30199,-1.33832 9.90516,-4.015 2.60308,-2.67665 3.90464,-6.35339 3.90469,-11.03022 -5e-5,-4.55914 -1.36044,-8.11823 -4.08119,-10.67728 -2.72082,-2.55896 -5.81663,-3.83848 -9.28743,-3.83852 -3.70619,4e-5 -6.96379,1.38984 -9.7728,4.16944 -2.80903,2.77964 -4.21356,6.46374 -4.21354,11.05229 z"
       id="path3439"
       style="font-size:40px;font-style:normal;font-weight:normal;line-height:125%;letter-spacing:0px;word-spacing:0px;fill:none;stroke:#000000;stroke-width:2.25899076;font-family:Rockwell;-inkscape-font-specification:Rockwell" />
    <path
       d="m 570.21886,266.74234 0,-46.45931 -7.72117,0 0,-7.45646 16.10414,0 0,23.56058 c 5.02976,-4.05907 9.80951,-6.08864 14.33929,-6.08868 2.82371,4e-5 5.1474,0.58833 6.97111,1.76483 1.82361,1.1766 3.06635,2.72819 3.72821,4.65477 0.66177,1.92664 0.99267,4.74302 0.99272,8.44914 l 0,21.57513 7.27996,0 0,7.45643 -15.66292,0 0,-26.11958 c -5e-5,-3.23549 -0.10301,-5.39743 -0.30885,-6.48577 -0.20602,-1.08829 -0.77217,-1.9854 -1.69867,-2.69138 -0.92657,-0.70589 -2.02223,-1.05886 -3.28699,-1.05891 -3.23557,5e-5 -7.35351,1.83842 -12.35386,5.51513 l 0,23.38408 7.41232,0 0,7.45643 -23.51646,0 0,-7.45643 z"
       id="path3441"
       style="font-size:40px;font-style:normal;font-weight:normal;line-height:125%;letter-spacing:0px;word-spacing:0px;fill:none;stroke:#000000;stroke-width:2.25899076;font-family:Rockwell;-inkscape-font-specification:Rockwell" />
    <path
       d="m 620.2961,274.19877 0,-10.85373 10.85372,0 0,10.85373 z"
       id="path3443"
       style="font-size:40px;font-style:normal;font-weight:normal;line-height:125%;letter-spacing:0px;word-spacing:0px;fill:none;stroke:#000000;stroke-width:2.25899076;font-family:Rockwell;-inkscape-font-specification:Rockwell" />
    <path
       d="m 162.47351,496.12457 0,-112.94597 -19.49211,0 0,-18.84238 125.18269,0 0,45.3733 -18.6258,0 0,-26.53092 -64.32398,0 0,44.83186 55.98568,0 0,18.84238 -55.98568,0 0,49.27173 64.32398,0 0,-27.39724 18.6258,0 0,46.23962 -125.18269,0 0,-18.84238 z"
       id="path3412"
       style="font-size:98.17523193px;font-style:normal;font-variant:normal;font-weight:normal;font-stretch:normal;line-height:125%;letter-spacing:0px;word-spacing:0px;fill:none;stroke:#000000;stroke-width:2.25899076;font-family:Rockwell;-inkscape-font-specification:Rockwell" />
    <path
       d="m 298.81001,496.12457 0,-112.94597 -16.3517,0 0,-18.84238 55.44422,0 0,18.84238 -16.35171,0 0,112.94597 16.35171,0 0,18.84238 -55.44422,0 0,-18.84238 z"
       id="path3414"
       style="font-size:98.17523193px;font-style:normal;font-variant:normal;font-weight:normal;font-stretch:normal;line-height:125%;letter-spacing:0px;word-spacing:0px;fill:none;stroke:#000000;stroke-width:2.25899076;font-family:Rockwell;-inkscape-font-specification:Rockwell" />
    <path
       d="m 352.52161,514.96695 0,-54.68622 18.84238,0 0,13.31962 c 9.0241,16.38783 20.82764,24.58173 35.41067,24.58171 7.43581,2e-5 13.71659,-2.27406 18.84238,-6.82225 5.12563,-4.54811 7.68847,-10.50403 7.68856,-17.86775 -9e-5,-7.14707 -2.0937,-12.29081 -6.2808,-15.43126 -4.18727,-3.14034 -12.0924,-6.26269 -23.71541,-9.36704 -13.50013,-3.6096 -23.49886,-7.0207 -29.99619,-10.23336 -6.4974,-3.21252 -11.67724,-7.79678 -15.53955,-13.75279 -3.86233,-5.95582 -5.7935,-13.01266 -5.79348,-21.17058 -2e-5,-12.63365 4.20523,-22.72262 12.61572,-30.26693 8.41047,-7.54401 18.96868,-11.3161 31.67469,-11.31626 12.05617,1.6e-4 23.24608,3.89857 33.56975,11.69527 l 0,-10.07092 18.40922,0 0,45.69817 -18.40922,0 0,-10.50408 c -7.72473,-11.62294 -18.37318,-17.43449 -31.9454,-17.4346 -8.23005,1.1e-4 -14.54693,1.89518 -18.95067,5.68518 -4.40382,3.79027 -6.6057,8.32038 -6.60565,13.59034 -5e-5,4.04293 1.11894,7.59843 3.35697,10.66652 2.23794,3.0683 5.08957,5.32433 8.55486,6.7681 3.46523,1.44394 10.28745,3.46536 20.46673,6.06421 13.28343,3.46536 22.92119,6.69599 28.9133,9.69191 5.99193,2.9961 11.15372,7.99545 15.4854,14.99809 4.33146,7.00278 6.49727,15.05231 6.49738,24.14857 -1.1e-4,12.85038 -4.53022,23.46276 -13.59034,31.83713 -9.06031,8.3744 -20.26827,12.56157 -33.6239,12.56157 -13.71673,0 -26.06173,-4.9452 -37.03502,-14.83565 l 0,12.4533 z"
       id="path3416"
       style="font-size:98.17523193px;font-style:normal;font-variant:normal;font-weight:normal;font-stretch:normal;line-height:125%;letter-spacing:0px;word-spacing:0px;fill:none;stroke:#000000;stroke-width:2.25899076;font-family:Rockwell;-inkscape-font-specification:Rockwell" />
    <path
       d="m 485.71774,496.12457 0,-112.94597 -19.05897,0 0,-18.84238 116.8444,0 0,45.3733 -18.62579,0 0,-26.53092 -56.41886,0 0,44.61527 48.622,0 0,18.84238 -48.622,0 0,49.48832 19.27554,0 0,18.84238 -61.07529,0 0,-18.84238 z"
       id="path3418"
       style="font-size:98.17523193px;font-style:normal;font-variant:normal;font-weight:normal;font-stretch:normal;line-height:125%;letter-spacing:0px;word-spacing:0px;fill:none;stroke:#000000;stroke-width:2.25899076;font-family:Rockwell;-inkscape-font-specification:Rockwell" />
    <path
       d="m 604.29478,514.96695 0,-26.63924 26.63922,0 0,26.63924 z"
       id="path3420"
       style="font-size:98.17523193px;font-style:normal;font-variant:normal;font-weight:normal;font-stretch:normal;line-height:125%;letter-spacing:0px;word-spacing:0px;fill:none;stroke:#000000;stroke-width:2.25899076;font-family:Rockwell;-inkscape-font-specification:Rockwell" />
    <path
       d="m 185.33244,640.3249 -24.44129,0 -5.23042,15.398 8.26115,0 0,8.50557 -26.78765,0 0,-8.50557 8.21226,0 18.57539,-51.81551 -8.26115,0 0,-7.67456 34.7555,0 0,7.67456 -8.45669,0 19.01532,51.81551 7.62568,0 0,8.50557 -26.641,0 0,-8.50557 8.45669,0 z"
       id="path3543"
       style="font-size:44.31690979px;font-style:normal;font-variant:normal;font-weight:normal;font-stretch:normal;line-height:125%;letter-spacing:0px;word-spacing:0px;fill:none;stroke:#000000;stroke-width:2.25899076;font-family:Rockwell;-inkscape-font-specification:Rockwell" />
    <path
       d="m 182.79055,632.35705 -9.04328,-28.44966 -0.92876,0 -9.38545,28.44966 z"
       id="path3391"
       style="font-size:44.31690979px;font-style:normal;font-variant:normal;font-weight:normal;font-stretch:normal;line-height:125%;letter-spacing:0px;word-spacing:0px;fill:none;stroke:#000000;stroke-width:2.25899076;font-family:Rockwell;-inkscape-font-specification:Rockwell" />
    <path
       d="m 217.25274,677.18236 0,-52.01105 -7.96784,0 0,-8.26115 17.25553,0 0,7.43014 c 4.62754,-5.4422 10.23273,-8.16334 16.81561,-8.16338 6.64798,4e-5 12.14727,2.28122 16.49786,6.84356 4.3505,4.5624 6.52577,10.49349 6.52582,17.79324 -5e-5,7.65829 -2.3627,13.70342 -7.08797,18.13545 -4.72536,4.432 -10.10243,6.648 -16.13125,6.64803 -6.257,-3e-5 -11.79702,-2.41154 -16.62007,-7.23462 l 0,18.81978 9.18993,0 0,8.26115 -27.12982,0 0,-8.26115 z"
       id="path3539"
       style="font-size:44.31690979px;font-style:normal;font-variant:normal;font-weight:normal;font-stretch:normal;line-height:125%;letter-spacing:0px;word-spacing:0px;fill:none;stroke:#000000;stroke-width:2.25899076;font-family:Rockwell;-inkscape-font-specification:Rockwell" />
    <path
       d="m 226.3938,641.25368 c -3e-5,2.60708 0.53768,5.10008 1.61312,7.47902 1.07539,2.37897 2.78628,4.37501 5.13267,5.98811 2.34633,1.61315 5.10004,2.4197 8.26116,2.4197 4.43198,0 8.09001,-1.48276 10.97413,-4.44832 2.88401,-2.96553 4.32606,-7.03908 4.3261,-12.22064 -4e-5,-5.05117 -1.50727,-8.99435 -4.52164,-11.82959 -3.01447,-2.83515 -6.44438,-4.25273 -10.28977,-4.25278 -4.10617,5e-5 -7.71534,1.53984 -10.8275,4.61941 -3.11221,3.07964 -4.6683,7.16132 -4.66827,12.24509 z"
       id="path3393"
       style="font-size:44.31690979px;font-style:normal;font-variant:normal;font-weight:normal;font-stretch:normal;line-height:125%;letter-spacing:0px;word-spacing:0px;fill:none;stroke:#000000;stroke-width:2.25899076;font-family:Rockwell;-inkscape-font-specification:Rockwell" />
    <path
       d="m 282.21768,655.96732 0,-30.79601 -9.5321,0 0,-8.26115 16.96224,0 0,10.65638 c 1.04282,-2.76997 2.493,-5.06743 4.35057,-6.89242 1.8575,-1.82491 3.82094,-3.03069 5.89034,-3.61733 2.06932,-0.58654 4.89636,-0.87983 8.48113,-0.87987 l 2.44412,0 0,9.38545 -1.85755,0 c -4.72533,4e-5 -8.25302,0.47256 -10.58306,1.41758 -2.3301,0.94512 -4.05728,2.66414 -5.18156,5.15712 -1.12432,2.49304 -1.68647,6.9658 -1.68645,13.41827 l 0,10.41198 10.31422,0 0,8.26115 -29.134,0 0,-8.26115 z"
       id="path3395"
       style="font-size:44.31690979px;font-style:normal;font-variant:normal;font-weight:normal;font-stretch:normal;line-height:125%;letter-spacing:0px;word-spacing:0px;fill:none;stroke:#000000;stroke-width:2.25899076;font-family:Rockwell;-inkscape-font-specification:Rockwell" />
    <path
       d="m 321.61703,600.8278 c -2e-5,-1.499 0.52953,-2.80255 1.58868,-3.91061 1.05911,-1.10794 2.40337,-1.66194 4.0328,-1.66201 1.53164,7e-5 2.85148,0.53778 3.95949,1.61313 1.10799,1.07548 1.66199,2.39529 1.66201,3.95949 -2e-5,1.5643 -0.55402,2.89227 -1.66201,3.98391 -1.10801,1.09177 -2.42785,1.63763 -3.95949,1.63756 -1.56424,7e-5 -2.89223,-0.55392 -3.98391,-1.662 -1.09173,-1.10795 -1.63759,-2.42776 -1.63757,-3.95947 z"
       id="path3533"
       style="font-size:44.31690979px;font-style:normal;font-variant:normal;font-weight:normal;font-stretch:normal;line-height:125%;letter-spacing:0px;word-spacing:0px;fill:none;stroke:#000000;stroke-width:2.25899076;font-family:Rockwell;-inkscape-font-specification:Rockwell" />
    <path
       d="m 322.93685,655.96732 0,-30.79601 -7.38128,0 0,-8.26115 16.66896,0 0,39.05716 7.28351,0 0,8.26115 -23.95247,0 0,-8.26115 z"
       id="path3397"
       style="font-size:44.31690979px;font-style:normal;font-variant:normal;font-weight:normal;font-stretch:normal;line-height:125%;letter-spacing:0px;word-spacing:0px;fill:none;stroke:#000000;stroke-width:2.25899076;font-family:Rockwell;-inkscape-font-specification:Rockwell" />
    <path
       d="m 352.07085,655.96732 0,-51.47334 -8.40781,0 0,-8.26115 17.69549,0 0,59.73449 7.23462,0 0,8.26115 -24.93011,0 0,-8.26115 z"
       id="path3399"
       style="font-size:44.31690979px;font-style:normal;font-variant:normal;font-weight:normal;font-stretch:normal;line-height:125%;letter-spacing:0px;word-spacing:0px;fill:none;stroke:#000000;stroke-width:2.25899076;font-family:Rockwell;-inkscape-font-specification:Rockwell" />
    <path
       d="m 444.11673,639.93384 -0.63548,24.29463 -43.45659,0 c -2e-5,-4.69271 0.83915,-9.17362 2.51744,-13.44271 1.6783,-4.26906 4.04095,-8.00042 7.08797,-11.19409 3.04699,-3.19365 7.69898,-7.07166 13.95598,-11.63405 3.94316,-2.90034 6.61541,-5.32001 8.01675,-7.25906 1.40125,-1.93896 2.1019,-4.19572 2.10194,-6.77024 -4e-5,-3.16103 -0.99397,-5.74365 -2.98184,-7.74789 -1.98791,-2.00413 -4.72533,-3.00622 -8.21227,-3.00629 -4.07357,7e-5 -7.05539,1.14066 -8.94551,3.42179 -1.89014,2.28124 -2.83519,6.0289 -2.83519,11.24299 0,1.30358 0.0325,2.54193 0.0978,3.71507 l -9.04328,0 c -0.0325,-1.17314 -0.0488,-2.1345 -0.0488,-2.88407 -3e-5,-7.36492 1.74346,-13.1249 5.23042,-17.27997 3.48693,-4.15496 8.60332,-6.23247 15.34912,-6.23254 6.81094,7e-5 12.03323,1.77614 15.66687,5.32819 3.63356,3.5522 5.45035,7.91903 5.4504,13.10055 -5e-5,4.33428 -1.18952,8.03306 -3.56842,11.09634 -2.37901,3.06333 -6.92507,6.95765 -13.63825,11.68291 -6.51768,4.62759 -10.7949,8.39154 -12.83167,11.29189 -2.03678,2.90038 -3.21812,5.47486 -3.54398,7.72344 l 25.61447,0 0.39106,-15.44689 z"
       id="path3401"
       style="font-size:44.31690979px;font-style:normal;font-variant:normal;font-weight:normal;font-stretch:normal;line-height:125%;letter-spacing:0px;word-spacing:0px;fill:none;stroke:#000000;stroke-width:2.25899076;font-family:Rockwell;-inkscape-font-specification:Rockwell" />
    <path
       d="m 453.89323,630.25508 c 0,-11.21035 2.1101,-19.86256 6.3303,-25.95664 4.22018,-6.09394 9.98018,-9.14096 17.28,-9.14103 7.56045,7e-5 13.37747,3.16115 17.45106,9.48322 4.0735,6.3222 6.11028,14.86035 6.11032,25.61445 -4e-5,11.14525 -2.10199,19.77302 -6.30586,25.88334 -4.20393,6.11032 -9.95578,9.16547 -17.25552,9.16547 -7.6257,0 -13.46718,-3.17736 -17.52442,-9.53211 -4.05726,-6.35472 -6.08588,-14.86027 -6.08588,-25.5167 z"
       id="path3525"
       style="font-size:44.31690979px;font-style:normal;font-variant:normal;font-weight:normal;font-stretch:normal;line-height:125%;letter-spacing:0px;word-spacing:0px;fill:none;stroke:#000000;stroke-width:2.25899076;font-family:Rockwell;-inkscape-font-specification:Rockwell" />
    <path
       d="m 463.86528,630.25508 c 0,9.71138 1.17318,16.66083 3.51955,20.84843 2.34634,4.18761 5.71924,6.28142 10.1187,6.2814 4.39938,2e-5 7.77228,-2.10193 10.11867,-6.30584 2.34632,-4.20389 3.51951,-11.14521 3.51955,-20.82399 -4e-5,-9.84163 -1.18951,-16.83183 -3.56843,-20.97062 -2.37897,-4.13865 -5.73558,-6.20802 -10.06979,-6.20806 -4.8883,4e-5 -8.38339,2.35457 -10.48531,7.06352 -2.10197,4.70907 -3.15294,11.41412 -3.15294,20.11516 z"
       id="path3403"
       style="font-size:44.31690979px;font-style:normal;font-variant:normal;font-weight:normal;font-stretch:normal;line-height:125%;letter-spacing:0px;word-spacing:0px;fill:none;stroke:#000000;stroke-width:2.25899076;font-family:Rockwell;-inkscape-font-specification:Rockwell" />
    <path
       d="m 528.43916,655.96732 0,-51.47334 -9.28771,0 0,-8.16338 18.57539,0 0,59.63672 8.84775,0 0,8.26115 -27.42314,0 0,-8.26115 z"
       id="path3405"
       style="font-size:44.31690979px;font-style:normal;font-variant:normal;font-weight:normal;font-stretch:normal;line-height:125%;letter-spacing:0px;word-spacing:0px;fill:none;stroke:#000000;stroke-width:2.25899076;font-family:Rockwell;-inkscape-font-specification:Rockwell" />
    <path
       d="m 589.24907,645.94639 -22.87705,0 c -0.78213,-3.0307 -2.23231,-5.58887 -4.35055,-7.67456 l 28.30301,-42.57671 7.8701,0 0,42.03901 10.85192,0 0,8.21226 -10.85192,0 0,10.02093 6.20807,0 0,8.26115 -22.3882,0 0,-8.26115 7.23462,0 z"
       id="path3519"
       style="font-size:44.31690979px;font-style:normal;font-variant:normal;font-weight:normal;font-stretch:normal;line-height:125%;letter-spacing:0px;word-spacing:0px;fill:none;stroke:#000000;stroke-width:2.25899076;font-family:Rockwell;-inkscape-font-specification:Rockwell" />
    <path
       d="m 589.24907,637.73413 0,-26.78766 -17.84214,26.78766 z"
       id="path3407"
       style="font-size:44.31690979px;font-style:normal;font-variant:normal;font-weight:normal;font-stretch:normal;line-height:125%;letter-spacing:0px;word-spacing:0px;fill:none;stroke:#000000;stroke-width:2.25899076;font-family:Rockwell;-inkscape-font-specification:Rockwell" />
    <path
       d="m 622.04928,664.22847 0,-12.0251 12.0251,0 0,12.0251 z"
       id="path3409"
       style="font-size:44.31690979px;font-style:normal;font-variant:normal;font-weight:normal;font-stretch:normal;line-height:125%;letter-spacing:0px;word-spacing:0px;fill:none;stroke:#000000;stroke-width:2.25899076;font-family:Rockwell;-inkscape-font-specification:Rockwell" />
  </g>
</svg>
